<svg xmlns="http://www.w3.org/2000/svg" viewBox="0 0 512 512">
  <defs>
    <linearGradient id="bg" x1="0" y1="0" x2="1" y2="1">
      <stop offset="0%" stop-color="#6366F1"/>
      <stop offset="100%" stop-color="#8B5CF6"/>
    </linearGradient>
  </defs>
  <!-- Full bleed background (maskable safe) -->
  <rect width="512" height="512" fill="url(#bg)"/>
  <!-- Content in safe zone (center 80% = 410x410, so 51,51 to 461,461) -->
  <g transform="translate(56,56) scale(0.78125)">
    <!-- Grid lines -->
    <g stroke="rgba(255,255,255,0.25)" stroke-width="3" stroke-linecap="round">
      <line x1="88" y1="170" x2="424" y2="170"/>
      <line x1="88" y1="256" x2="424" y2="256"/>
      <line x1="88" y1="342" x2="424" y2="342"/>
      <line x1="200" y1="128" x2="200" y2="384"/>
      <line x1="312" y1="128" x2="312" y2="384"/>
    </g>
    <rect x="104" y="180" width="80" height="64" rx="10" fill="#FBBF24"/>
    <rect x="216" y="180" width="80" height="100" rx="10" fill="#34D399"/>
    <rect x="328" y="224" width="80" height="88" rx="10" fill="#F472B6"/>
    <rect x="104" y="300" width="80" height="60" rx="10" fill="#60A5FA"/>
    <rect x="216" y="296" width="80" height="70" rx="10" fill="#F87171"/>
    <rect x="88" y="128" width="336" height="256" rx="18" fill="none" stroke="rgba(255,255,255,0.85)" stroke-width="6"/>
    <rect x="88" y="128" width="336" height="34" rx="18" fill="rgba(0,0,0,0.18)"/>
    <circle cx="120" cy="145" r="6" fill="#FBBF24"/>
    <circle cx="144" cy="145" r="6" fill="#34D399"/>
    <circle cx="168" cy="145" r="6" fill="#F472B6"/>
  </g>
</svg>
